# xmcd
#
# Track frame offsets:
#  150
#  14050
#  29200
#  44548
#  58435
#  71505
#  84063
#  98130
#  111968
#  125663
#  140896
#  155088
#
# Disc length: 2268 seconds
#
# Revision: 0
# Processed by: cddbd v1.4PL0 Copyright (c) Steve Scherf et al.
# Submitted via: AltoMP3_Maker 3.0
#
DISCID=b908da0c
DTITLE=Blind Willie Johnson - The Best Of Blind Willie Johnson
DYEAR=1900
DGENRE=
TTITLE0=I Know His Blood Can Make Me Whole
TTITLE1=Dark Was The Night - Cold Was The Ground
TTITLE2=I'm Gonna Run To The City Of Refuge
TTITLE3=Keep Your Lamp Trimmed And Burning
TTITLE4=Bye And Bye I'm Goin' To See The King
TTITLE5=Sweeter As The Years Roll By
TTITLE6=You'll Need Somebody On Your Bond
TTITLE7=When The War Was On
TTITLE8=Take Your Stand
TTITLE9=Can't Nobody Hide From God
TTITLE10=Trouble Will Soon Be Over
TTITLE11=John The Revelator
EXTD=
EXTT0=
EXTT1=
EXTT2=
EXTT3=
EXTT4=
EXTT5=
EXTT6=
EXTT7=
EXTT8=
EXTT9=
EXTT10=
EXTT11=
PLAYORDER=
